<svg xmlns="http://www.w3.org/2000/svg" width="2509" height="447" viewBox="0 0 2509 447">
  <defs>
    <style>
      .cls-1 {
        fill: #a8c0a3;
      }

      .cls-1, .cls-2 {
        fill-rule: evenodd;
      }

      .cls-2 {
        fill: #fff;
      }
    </style>
  </defs>
  <path id="BALANCED_PLATES" data-name="BALANCED PLATES" class="cls-1" d="M160.79,202.009q20.111,0,32.343-7.086t17.943-18.172a50,50,0,0,0,5.714-23.2q0-13.713-5.6-22.285A40.327,40.327,0,0,0,197.7,118.123a49.569,49.569,0,0,0-14.514-5.943v-2.057a39.256,39.256,0,0,0,18.286-11.771q8-8.8,8-24.114a39.619,39.619,0,0,0-5.715-21.029q-5.715-9.37-16.914-14.857t-27.886-5.486H72.1V202.009H160.79Zm2.057-128.8a13.768,13.768,0,0,1,4.343,10.629q0,6.857-4.343,10.857t-13.029,4H115.99V69.209h33.828Q158.5,69.209,162.847,73.209Zm5.029,62.743q4.8,4.574,4.8,12.342t-4.8,12.572q-4.8,4.8-14.858,4.8H115.99V131.38h37.028Q163.074,131.38,167.876,135.952Zm117.482,66.057,8.914-28.343h62.4l8.914,28.343H411.3L355.072,32.866h-59.2L239.644,202.009h45.714ZM325.586,73.78l19.429,62.4H305.929Zm236.8,128.229V164.066H482.611V32.866H438.726V202.009H562.383Zm72,0,8.915-28.343h62.4l8.914,28.343h45.714L704.094,32.866H644.9L588.666,202.009H634.38ZM674.609,73.78l19.428,62.4H654.952ZM831.177,202.009V112.866l61.942,89.143h40.915V32.866H890.605v93.943l-62.4-93.943H787.748V202.009h43.429Zm250.283-2.286a69.906,69.906,0,0,0,21.71-11.772A65.974,65.974,0,0,0,1117,172.637a80.31,80.31,0,0,0,7.77-15.314A95.658,95.658,0,0,0,1129,140.98h-43.43a42.408,42.408,0,0,1-5.71,12.114q-3.435,4.8-10.51,8.457-7.1,3.66-18.75,3.658-13.71,0-22.97-7.086a43.305,43.305,0,0,1-13.83-18.057,59.446,59.446,0,0,1,0-45.714,42.514,42.514,0,0,1,13.83-17.943q9.255-6.97,22.97-6.972,11.655,0,18.75,3.657,7.08,3.659,10.51,8.571a44.305,44.305,0,0,1,5.71,12.229H1129a95.733,95.733,0,0,0-4.23-16.343A80.419,80.419,0,0,0,1117,62.237a66.051,66.051,0,0,0-13.83-15.314,69.967,69.967,0,0,0-21.71-11.771q-13.035-4.57-31.31-4.571-21.5,0-37.72,7.429A78.434,78.434,0,0,0,985.461,57.78a85.586,85.586,0,0,0-16.229,27.771,93.837,93.837,0,0,0-5.486,31.657,94.8,94.8,0,0,0,5.486,31.771,86.6,86.6,0,0,0,16.229,28,77.667,77.667,0,0,0,26.969,19.886q16.23,7.429,37.72,7.428h0Q1068.435,204.294,1081.46,199.723Zm200.91,2.286V164.066H1202.6V134.352h68.34V98.237H1202.6V70.809h78.63V32.866H1158.72V202.009h123.65Zm105.37,0q21.03,0,36.92-7.2a77.066,77.066,0,0,0,26.51-19.315,81.623,81.623,0,0,0,15.89-27.2,93.306,93.306,0,0,0,0-61.714,81.657,81.657,0,0,0-15.89-27.2,77.116,77.116,0,0,0-26.51-19.314q-15.9-7.2-36.92-7.2H1317.8V202.009h69.94Zm22.17-124a40.378,40.378,0,0,1,13.83,17.143,54.881,54.881,0,0,1,4.46,21.828,55.672,55.672,0,0,1-4.46,21.943,40.208,40.208,0,0,1-13.83,17.257q-9.375,6.744-24.23,6.743h-24V71.266h24Q1400.545,71.266,1409.91,78.009Zm176.68,124V140.751h41.38q18.735,0,31.31-7.885a51.088,51.088,0,0,0,18.86-20.229,56.653,56.653,0,0,0,6.28-26.057,55.743,55.743,0,0,0-6.28-25.6,51.091,51.091,0,0,0-18.86-20.229q-12.57-7.886-31.31-7.886h-58.98V202.009h17.6Zm63.09-147.886a35.075,35.075,0,0,1,13.03,14.286,41.175,41.175,0,0,1,0,36.8,35.049,35.049,0,0,1-13.03,14.285q-8.685,5.487-21.71,5.486h-41.38V48.637h41.38Q1640.99,48.637,1649.68,54.123Zm178.74,147.886V186.237h-88.45V32.866h-17.6V202.009h106.05Zm53.71,0,15.32-43.658h74.06l15.31,43.658h18.74L1945.22,32.866h-21.71l-60.12,169.143h18.74Zm52.35-148.8,31.54,89.142h-63.09Zm172.79,148.8V48.637h54.86V32.866H2034.82V48.637h54.85V202.009h17.6Zm197.49,0V186.237h-87.09V123.609h75.2V107.837h-75.2v-59.2h85.94V32.866H2200.07V202.009h104.69Zm129.48-4.458a48.737,48.737,0,0,0,19.43-17.942,46.585,46.585,0,0,0,6.74-24.458q0-13.252-5.94-22.628a46.535,46.535,0,0,0-16.11-15.314,87.052,87.052,0,0,0-23.2-9.143l-23.09-5.714q-13.26-3.2-20.69-9.6t-7.42-17.143q0-11.657,9.14-20.457t26.97-8.8q10.74,0,17.83,3.2a32.4,32.4,0,0,1,11.2,7.886,34.52,34.52,0,0,1,6.06,9.371,46.352,46.352,0,0,1,2.85,11.086h17.37a79.894,79.894,0,0,0-4.45-16.686,51.86,51.86,0,0,0-8.8-14.057,47.664,47.664,0,0,0-16-11.771q-10.065-4.8-25.6-4.8-15.555,0-27.66,5.6a46.363,46.363,0,0,0-19.2,15.886q-7.08,10.286-7.09,24.686,0,12.573,5.72,21.143a43.1,43.1,0,0,0,15.54,13.943,96.434,96.434,0,0,0,22.17,8.572l21.72,5.257q13.935,3.429,22.51,10.286t8.57,20.114a28.6,28.6,0,0,1-10.74,23.085q-10.74,8.914-28.11,8.915-12.81,0-21.03-3.543a36.427,36.427,0,0,1-13.03-8.914,37.146,37.146,0,0,1-6.97-10.743,57.479,57.479,0,0,1-3.32-12.686h-17.83a77.807,77.807,0,0,0,2.75,13.486,56.962,56.962,0,0,0,5.83,12.571,53.9,53.9,0,0,0,10.74,12.572,52.81,52.81,0,0,0,17.14,9.714q10.4,3.771,25.26,3.771h0Q2421.545,204.294,2434.24,197.551Z"/>
  <path class="cls-1" d="M55,240.013V223.86H2476.4v16.153H55Z"/>
  <path id="MEAL_CALORIE_PLANNER" data-name="MEAL &amp; CALORIE PLANNER" class="cls-2" d="M382.651,400.11V319.459l29.478,56.4h9.188l29.479-56.15v80.4h9.7V305.677H447.35l-30.627,58.957L386.1,305.677H372.952V400.11h9.7Zm162.576,0v-8.805h-48.62V356.339h41.985v-8.805H496.607V314.482h47.982v-8.805H486.781V400.11h58.446Zm29.989,0,8.55-24.374h41.346l8.55,24.374h10.464l-33.69-94.433H598.313L564.751,400.11h10.465Zm29.223-83.076,17.61,49.769H586.828ZM724.776,400.11v-8.805H675.39V305.677h-9.826V400.11h59.212Zm101.832-1.276a36.222,36.222,0,0,0,12.506-7.912l8.04,9.06h12.123l-14.293-16.206a54.616,54.616,0,0,0,6.828-16.143A87.358,87.358,0,0,0,854.3,345.62h-8.295a81.906,81.906,0,0,1-1.786,18.057,51.533,51.533,0,0,1-4.977,13.59l-25.395-28.585q9.7-4.719,14.739-10.847a21.3,21.3,0,0,0,5.041-13.91,18.193,18.193,0,0,0-3.063-10.655,19.433,19.433,0,0,0-7.848-6.636,23.727,23.727,0,0,0-10.145-2.233,24.571,24.571,0,0,0-10.783,2.424,20.23,20.23,0,0,0-8.167,7.083,20.5,20.5,0,0,0-3.127,11.676,22.53,22.53,0,0,0,1.659,8.806,31.173,31.173,0,0,0,3.956,6.955q2.3,3,4.211,5.295l0.383,0.383a52.355,52.355,0,0,0-14.293,11.294,23.671,23.671,0,0,0-5.742,16.143,24.183,24.183,0,0,0,4.275,14.42,27.812,27.812,0,0,0,11.485,9.252,38.172,38.172,0,0,0,15.888,3.254A40.84,40.84,0,0,0,826.608,398.834Zm-24.629-64.317a15.348,15.348,0,0,1-2.935-9.188q0-6.251,4.084-9.7a14.208,14.208,0,0,1,9.443-3.446,13.356,13.356,0,0,1,8.678,3.127q3.828,3.127,3.828,9.124a15.006,15.006,0,0,1-3.828,10.145,32.377,32.377,0,0,1-10.975,7.721l-1.4.765-0.765-.893A92,92,0,0,1,801.979,334.517Zm-7.465,26.607a44.279,44.279,0,0,1,11.166-8.486l27.947,32.031a26.246,26.246,0,0,1-9.571,6.38,31.266,31.266,0,0,1-11.23,2.042,28.242,28.242,0,0,1-11.485-2.3,20.574,20.574,0,0,1-8.422-6.572,16.888,16.888,0,0,1-3.191-10.4A17.714,17.714,0,0,1,794.514,361.124Zm177.125,37.965a34.014,34.014,0,0,0,10.783-6,36.27,36.27,0,0,0,7.019-7.848,40.1,40.1,0,0,0,4.019-7.784,52.6,52.6,0,0,0,2.234-8.359H985.74a36.889,36.889,0,0,1-2.68,8.167,27.69,27.69,0,0,1-4.913,6.891,25.56,25.56,0,0,1-8.55,5.743,33.654,33.654,0,0,1-13.336,2.3,31.632,31.632,0,0,1-14.8-3.318,31.1,31.1,0,0,1-10.655-9,41.061,41.061,0,0,1-6.445-12.7,48.385,48.385,0,0,1,0-28.649A41.257,41.257,0,0,1,930.8,325.9a31.152,31.152,0,0,1,10.655-9,31.656,31.656,0,0,1,14.8-3.318,33.654,33.654,0,0,1,13.336,2.3,25.558,25.558,0,0,1,8.55,5.742,27.676,27.676,0,0,1,4.913,6.892,37.213,37.213,0,0,1,2.68,8.039h9.954a55.727,55.727,0,0,0-2.234-8.3,37.905,37.905,0,0,0-4.019-7.784,37.118,37.118,0,0,0-7.019-7.784,34.053,34.053,0,0,0-10.783-6,45.934,45.934,0,0,0-15.378-2.3,43.129,43.129,0,0,0-19.269,4.083,39.511,39.511,0,0,0-13.782,11.039,48.7,48.7,0,0,0-8.231,15.632,58.488,58.488,0,0,0-2.744,17.738,57.863,57.863,0,0,0,2.744,17.675,48.8,48.8,0,0,0,8.231,15.568,40.111,40.111,0,0,0,13.782,11.1,42.551,42.551,0,0,0,19.269,4.147h0A45.934,45.934,0,0,0,971.639,399.089Zm52.641,1.021,8.55-24.374h41.34l8.55,24.374h10.47l-33.69-94.433h-12.12l-33.57,94.433h10.47Zm29.22-83.076,17.61,49.769h-35.22Zm120.34,83.076v-8.805h-49.39V305.677h-9.82V400.11h59.21Zm85.75-2.871a41.608,41.608,0,0,0,14.1-11.1,49.63,49.63,0,0,0,8.62-15.632,54.773,54.773,0,0,0,0-35.349,49.673,49.673,0,0,0-8.62-15.632,40.982,40.982,0,0,0-14.1-11.039,44.236,44.236,0,0,0-19.52-4.083,44.7,44.7,0,0,0-19.59,4.083,40.962,40.962,0,0,0-14.17,11.039,48.91,48.91,0,0,0-8.55,15.632,55.857,55.857,0,0,0,0,35.349,48.868,48.868,0,0,0,8.55,15.632,41.583,41.583,0,0,0,14.17,11.1,44.1,44.1,0,0,0,19.59,4.147A43.64,43.64,0,0,0,1259.59,397.239Zm-37.9-10.209a35.313,35.313,0,0,1-12.38-14.1,44.429,44.429,0,0,1-4.46-20.163,43.747,43.747,0,0,1,4.46-19.971,35.412,35.412,0,0,1,12.38-14.038,35.037,35.037,0,0,1,36.63,0,35.465,35.465,0,0,1,12.37,14.038,43.751,43.751,0,0,1,4.47,19.971,44.433,44.433,0,0,1-4.47,20.163,35.366,35.366,0,0,1-12.37,14.1A35.037,35.037,0,0,1,1221.69,387.03Zm96.22,13.08V359.019h19.4l23.86,41.091h11.1l-24.5-41.857a26.892,26.892,0,0,0,11.87-5.487,25.346,25.346,0,0,0,7.08-9.316,27.338,27.338,0,0,0-.83-23.927,25.324,25.324,0,0,0-9.7-9.954q-6.5-3.891-16.2-3.892h-31.91V400.11h9.83Zm32.67-83.012a17.38,17.38,0,0,1,6.38,6.764,18.18,18.18,0,0,1,0,17.227,17.353,17.353,0,0,1-6.38,6.764,20.016,20.016,0,0,1-10.72,2.616h-21.95V314.482h21.95A20.034,20.034,0,0,1,1350.58,317.1Zm56.4,83.012V305.677h-9.82V400.11h9.82Zm84.86,0v-8.805h-48.62V356.339h41.99v-8.805h-41.99V314.482h47.98v-8.805h-57.8V400.11h58.44Zm68.66,0v-34.2h23.09q10.47,0,17.49-4.4a28.621,28.621,0,0,0,10.53-11.293,31.743,31.743,0,0,0,3.5-14.548,31.232,31.232,0,0,0-3.5-14.293,28.621,28.621,0,0,0-10.53-11.293q-7.02-4.4-17.49-4.4h-32.92V400.11h9.83Zm35.22-82.565a19.6,19.6,0,0,1,7.27,7.976,22.928,22.928,0,0,1,0,20.545,19.585,19.585,0,0,1-7.27,7.976,22.336,22.336,0,0,1-12.13,3.063H1560.5V314.482h23.09A22.336,22.336,0,0,1,1595.72,317.545Zm99.79,82.565v-8.805h-49.39V305.677h-9.82V400.11h59.21Zm29.99,0,8.55-24.374h41.34l8.55,24.374h10.47l-33.69-94.433H1748.6l-33.57,94.433h10.47Zm29.22-83.076,17.61,49.769h-35.22Zm70.95,83.076V323.287l52.71,76.823h9.06V305.677h-9.83V382.5l-52.7-76.822h-9.06V400.11h9.82Zm97.88,0V323.287l52.7,76.823h9.06V305.677h-9.82V382.5l-52.71-76.822h-9.06V400.11h9.83Zm146.5,0v-8.805h-48.62V356.339h41.98v-8.805h-41.98V314.482h47.98v-8.805H2011.6V400.11h58.45Zm34.2,0V359.019h19.39l23.87,41.091h11.1l-24.5-41.857a26.853,26.853,0,0,0,11.86-5.487,25.482,25.482,0,0,0,7.09-9.316,27.338,27.338,0,0,0-.83-23.927,25.324,25.324,0,0,0-9.7-9.954q-6.51-3.891-16.21-3.892h-31.9V400.11h9.83Zm32.66-83.012a17.308,17.308,0,0,1,6.38,6.764,18.18,18.18,0,0,1,0,17.227,17.281,17.281,0,0,1-6.38,6.764,19.992,19.992,0,0,1-10.72,2.616h-21.94V314.482h21.94A20.01,20.01,0,0,1,2136.91,317.1Z"/>
</svg>
